<?xml version="1.0" encoding="utf-8"?>
<!-- Generator: Adobe Illustrator 24.0.1, SVG Export Plug-In . SVG Version: 6.00 Build 0)  -->
<svg version="1.1" id="dino" xmlns="http://www.w3.org/2000/svg" xmlns:xlink="http://www.w3.org/1999/xlink" x="0px" y="0px"
	 viewBox="0 0 80 80" style="enable-background:new 0 0 80 80;" xml:space="preserve">
<style type="text/css">
	.st0{fill:#FF0000;}
	.st1{fill:#FFFFFF;}
</style>
<g>
	<path class="st0" d="M52.44,38.34l0.18-0.19c-0.05,0-0.1,0-0.15,0L52.44,38.34z"/>
	<path class="st0" d="M51.91,37.81l0.56,0.34c0.05,0,0.1,0,0.15,0l1.97-2.12C53.69,36.66,52.8,37.24,51.91,37.81z"/>
	<path class="st0" d="M51.4,38.15c0.35,0,0.71,0,1.07,0l-0.56-0.34C51.74,37.92,51.57,38.04,51.4,38.15
		C51.4,38.15,51.4,38.15,51.4,38.15z"/>
	<path class="st0" d="M53.27,47.51l0.65,0.77c0.85,1.01,2.48,0.8,3.03-0.4c0.37-0.81,0.61-1.76,0.74-2.46l-0.31-1.27
		c0.25-1.31-3.84,0.15-5.15-0.1h-2.11l-0.61,4.27C51.54,48.17,52.53,47.37,53.27,47.51z"/>
	<path class="st0" d="M35.73,61.64l-1.17-0.59l1.46,15.21c0,2.07,1.4,3.75,3.13,3.75h3.95c2.09,0,3.54-2.03,3.54-4.53l-3.54-1.84
		c0-1.18,0.41-8.06,1.43-12.58C41.6,62.56,38.44,63.02,35.73,61.64z"/>
	<path class="st0" d="M52.62,38.15l20.51,0c2.56,0,2.82-1.02,0.58-2.27C45.51,20.19,79,32.65,79,26.47
		c0-6.45-4.16-11.68-10.61-11.68L52.8,12.72c-0.22-0.03-0.44-0.05-0.66-0.04c-6.33,0.24-12.41,7.45-12.41,13.79
		c0,2.11,0.57,4.09,1.55,5.8L25.25,46.13h0c-1.82,1.57-4.45,1.77-6.5,0.52c-9.45-5.79-10.65-8.84-13.97-13.4L1,28.22
		c2.52,11.34-1.56,13.67,15.81,32.63l0.09,0.13c2.69,2.32,3.95,2.32,6.47,3.58c6.51,3.26,8.12,3.51,14.6,1.19
		c1.09-0.23,2.18-0.64,3.23-1.18c4.43-2.29,8.29-7.02,9.14-11.56l0.62-4.32l0.61-4.27l0.87-6.08l0.03-0.19c-0.36,0-0.72,0-1.07,0
		c0,0,0,0,0,0c0.17-0.11,0.34-0.23,0.51-0.34"/>
</g>
<path class="st0" d="M22.88,60.16l-1.17-0.59l1.46,16.68c0,2.07,1.4,3.76,3.13,3.76h3.95c2.09,0,3.54-2.03,3.54-4.54l-3.54-1.84
	c0-1.18,0.41-9.53,1.43-14.06C28.76,61.08,25.6,61.54,22.88,60.16z"/>
<path class="st1" d="M59.53,21.77c0,1.21-2.11,1.46-2.92,1.46s-1.46-0.98-1.46-2.19c0-1.21,0.65-2.19,1.46-2.19
	S59.53,18.85,59.53,21.77z"/>
</svg>
